<svg xmlns="http://www.w3.org/2000/svg" xmlns:xlink="http://www.w3.org/1999/xlink" fill="none" version="1.1" width="70" height="70" viewBox="0 0 70 70"><defs><filter id="master_svg0_1_242" filterUnits="objectBoundingBox" color-interpolation-filters="sRGB" x="-0.5" y="-0.4" width="2" height="2"><feFlood flood-opacity="0" result="BackgroundImageFix"/><feColorMatrix in="SourceAlpha" type="matrix" values="0 0 0 0 0 0 0 0 0 0 0 0 0 0 0 0 0 0 127 0"/><feOffset dy="4" dx="0"/><feGaussianBlur stdDeviation="5"/><feColorMatrix type="matrix" values="0 0 0 0 0 0 0 0 0 0 0 0 0 0 0 0 0 0 0.30000001192092896 0"/><feBlend mode="normal" in2="BackgroundImageFix" result="effect1_dropShadow"/><feBlend mode="normal" in="SourceGraphic" in2="effect1_dropShadow" result="shape"/></filter></defs><g filter="url(#master_svg0_1_242)"><g><ellipse cx="35" cy="31" rx="20" ry="20" fill="#FACC15" fill-opacity="1"/></g><g><path d="M44.707136,39.303284000000005L40.114779,34.737397C39.752408,34.377114,39.724795,33.806649,39.998409,33.37508C40.787717,32.13011,41.244575999999995,30.6559372,41.244575999999995,29.0755224C41.244575999999995,24.6155603,37.608152000000004,21,33.1223116,21C28.6364717,21,25,24.6155357,25,29.0755215C25,33.535507,28.6365194,37.151044999999996,33.1223354,37.151044999999996C34.6695709,37.151044999999996,36.115494999999996,36.720607,37.346171999999996,35.973952C37.772751,35.715148,38.312979,35.756983,38.666806,36.108771000000004L43.293487999999996,40.70879C43.488732999999996,40.902906,43.744503,41,44.000349,41C44.256117,41,44.511892,40.902906,44.707115,40.70879C45.097623999999996,40.320550999999995,45.097623999999996,39.691503999999995,44.707136,39.303284000000005ZM26.8672312,29.0755215C26.8672312,25.640900600000002,29.667804699999998,22.8565631,33.1223354,22.8565631C36.576867,22.8565631,39.377347,25.6408772,39.377347,29.0755215C39.377347,32.510166,36.576868,35.294575,33.1223354,35.294575C29.667804699999998,35.294575,26.8672312,32.510142,26.8672312,29.0755215Z" fill="#FFFFFF" fill-opacity="1" style="mix-blend-mode:passthrough"/></g></g></svg>