<svg xmlns="http://www.w3.org/2000/svg" xmlns:xlink="http://www.w3.org/1999/xlink" fill="none" version="1.1" width="40" height="40" viewBox="0 0 40 40"><g><g><ellipse cx="20" cy="20" rx="20" ry="20" fill="#FACC15" fill-opacity="1"/></g><g><path d="M29.707136,28.303284L25.114779,23.737397C24.752408000000003,23.377114,24.724795,22.806649,24.998409000000002,22.37508C25.787717,21.130110000000002,26.244576,19.6559372,26.244576,18.0755224C26.244576,13.6155603,22.608152,10,18.1223116,10C13.6364717,10,10,13.6155357,10,18.0755215C10,22.535507000000003,13.636519400000001,26.151045,18.1223354,26.151045C19.6695709,26.151045,21.115495,25.720607,22.346172,24.973952C22.772751,24.715148,23.312979,24.756982999999998,23.666806,25.108771L28.293488,29.70879C28.488733,29.902906,28.744503,30,29.000349,30C29.256117,30,29.511892,29.902906,29.707115,29.70879C30.097624,29.320551,30.097624,28.691504,29.707136,28.303284ZM11.867231199999999,18.0755215C11.867231199999999,14.6409006,14.6678047,11.8565631,18.1223354,11.8565631C21.576867,11.8565631,24.377347,14.6408772,24.377347,18.0755215C24.377347,21.510165999999998,21.576867999999997,24.294575000000002,18.1223354,24.294575000000002C14.6678047,24.294575000000002,11.867231199999999,21.510142000000002,11.867231199999999,18.0755215Z" fill="#FFFFFF" fill-opacity="1" style="mix-blend-mode:passthrough"/></g></g></svg>