<svg xmlns="http://www.w3.org/2000/svg" xmlns:xlink="http://www.w3.org/1999/xlink" fill="none" version="1.1" width="70" height="70" viewBox="0 0 70 70"><defs><filter id="master_svg0_1_247" filterUnits="objectBoundingBox" color-interpolation-filters="sRGB" x="-0.5" y="-0.4" width="2" height="2"><feFlood flood-opacity="0" result="BackgroundImageFix"/><feColorMatrix in="SourceAlpha" type="matrix" values="0 0 0 0 0 0 0 0 0 0 0 0 0 0 0 0 0 0 127 0"/><feOffset dy="4" dx="0"/><feGaussianBlur stdDeviation="5"/><feColorMatrix type="matrix" values="0 0 0 0 0 0 0 0 0 0 0 0 0 0 0 0 0 0 0.30000001192092896 0"/><feBlend mode="normal" in2="BackgroundImageFix" result="effect1_dropShadow"/><feBlend mode="normal" in="SourceGraphic" in2="effect1_dropShadow" result="shape"/></filter><clipPath id="master_svg1_1_251"><rect x="28.125" y="21" width="13.75" height="20" rx="0"/></clipPath></defs><g filter="url(#master_svg0_1_247)"><rect x="15" y="11" width="40" height="40" rx="20" fill="#FACC15" fill-opacity="1" style="mix-blend-mode:passthrough"/><g><rect x="27.5" y="17" width="15" height="28" rx="0" fill="#000000" fill-opacity="0" style="mix-blend-mode:passthrough"/><g clip-path="url(#master_svg1_1_251)"><g transform="matrix(1,0,0,-1,0,82.859375)"><g><path d="M34.375,61.4296875Q32.7734375,61.3906255,31.71875,60.3359375Q30.6640625,59.2812495,30.625,57.6796875L30.625,51.4296875Q30.6640625,49.828125,31.71875,48.7734375Q32.7734375,47.71875,34.375,47.6796875Q35.9765625,47.71875,37.03125,48.7734375Q38.085938,49.828125,38.125,51.4296875L38.125,57.6796875Q38.085938,59.2812495,37.03125,60.3359375Q35.9765625,61.3906255,34.375,61.4296875ZM29.375,52.9921875Q29.296875,53.8515625,28.4375,53.9296875Q27.578125,53.8515625,27.5,52.9921875L27.5,51.4296875Q27.5390625,48.7734375,29.21875,46.8984375Q30.859375,45.0234375,33.4375,44.6328125L33.4375,43.3046875L31.5625,43.3046875Q30.703125,43.2265625,30.625,42.3671875Q30.703125,41.5078125,31.5625,41.4296875L34.375,41.4296875L37.1875,41.4296875Q38.046875,41.5078125,38.125,42.3671875Q38.046875,43.2265625,37.1875,43.3046875L35.3125,43.3046875L35.3125,44.6328125Q37.890625,45.0234375,39.53125,46.8984375Q41.210938,48.7734375,41.25,51.4296875L41.25,52.9921875Q41.171875,53.8515625,40.3125,53.9296875Q39.453125,53.8515625,39.375,52.9921875L39.375,51.4296875Q39.335938,49.3203125,37.929688,47.875Q36.484375,46.46875,34.375,46.4296875Q32.265625,46.46875,30.8203125,47.875Q29.4140625,49.3203125,29.375,51.4296875L29.375,52.9921875Z" fill="#FFFFFF" fill-opacity="1" style="mix-blend-mode:passthrough"/></g><g transform="matrix(1,0,0,-1,0,130.34982299804688)"><path d="M-570.450981619375,65.20977592502344C-570.591573719375,65.13377571102343,-570.767141819375,65.18616008802344,-570.843125819375,65.32675170902344C-571.159637929375,65.91231965902344,-571.352501869375,66.54788779902344,-571.416389942175,67.21580789902343C-571.431606054375,67.37489609902343,-571.314965959375,67.51619199902343,-571.155878069375,67.53140779902344C-571.146517989375,67.53230379902344,-571.137206079375,67.53273579902344,-571.127990009375,67.53273579902344C-570.980597969375,67.53273579902344,-570.854598049375,67.42062379902343,-570.840278149375,67.27089599902344C-570.783813949375,66.68049619902344,-570.613478179375,66.11897611902344,-570.334006309375,65.60192012902344C-570.258005609375,65.46135997902344,-570.310373809375,65.28577613902344,-570.450981619375,65.20977592502344Z" fill="#FF9000" fill-opacity="1" style="mix-blend-mode:passthrough"/></g></g></g></g></g></svg>